<svg version="1.1" id="Layer_1" xmlns="http://www.w3.org/2000/svg" xmlns:xlink="http://www.w3.org/1999/xlink" x="0px" y="0px"
	 width="100%" viewBox="0 0 1200 1200" enable-background="new 0 0 1200 1200" xml:space="preserve">
<path fill="#000000" opacity="1.000000" stroke="none" 
	d="
M707.000000,1201.000000 
	C471.333344,1201.000000 236.166672,1201.000000 1.000000,1201.000000 
	C1.000000,801.000000 1.000000,401.000000 1.000000,1.000000 
	C401.000000,1.000000 801.000000,1.000000 1201.000000,1.000000 
	C1201.000000,401.000000 1201.000000,801.000000 1201.000000,1201.000000 
	C1036.500000,1201.000000 872.000000,1201.000000 707.000000,1201.000000 
M497.717957,242.823074 
	C494.755829,253.215546 491.793701,263.608002 488.010498,273.999146 
	C487.182129,273.957428 486.344055,273.982727 485.526855,273.863983 
	C472.150085,271.920074 458.832489,269.258545 445.387329,268.172729 
	C427.602966,266.736450 409.911530,269.246277 392.598816,273.170715 
	C377.444519,276.605927 362.421722,280.891327 348.000214,289.051788 
	C339.341309,289.033783 330.682373,288.990997 322.023499,289.003326 
	C307.262299,289.024323 293.020264,292.454803 279.045868,296.570526 
	C245.563461,306.431702 214.390213,321.575684 184.902252,340.085663 
	C161.611740,354.705414 139.571930,371.083649 121.023476,391.587250 
	C107.504280,406.531494 94.783516,422.199036 81.233879,437.114532 
	C69.231972,450.326233 59.856117,465.224365 52.543625,481.270844 
	C46.452316,494.637573 41.281170,508.532043 37.014069,522.590881 
	C32.816872,536.419434 29.150822,550.604309 27.302702,564.898010 
	C25.299482,580.391235 24.947485,596.204102 25.238415,611.852234 
	C25.448814,623.169006 27.280035,634.562744 29.462694,645.711914 
	C33.204922,664.827515 37.766949,683.783264 42.021267,702.797913 
	C48.701679,732.656128 55.331383,762.526001 62.136715,792.355774 
	C67.291039,814.948730 73.172867,837.386414 77.850693,860.074707 
	C83.758926,888.730591 93.573265,915.969543 106.134285,942.236633 
	C112.508865,955.566956 119.481316,968.682312 127.151871,981.306458 
	C140.774567,1003.726746 155.738968,1025.169922 175.902588,1042.494629 
	C188.361237,1053.199341 201.947998,1062.144653 216.286896,1069.999146 
	C236.771103,1081.219971 258.069366,1090.705322 280.808624,1096.168945 
	C294.147430,1099.373901 307.873627,1101.130371 321.512054,1102.854614 
	C328.232635,1103.704224 335.167908,1103.314209 341.972015,1102.911011 
	C348.293610,1102.536499 354.660645,1101.823364 360.845947,1100.502197 
	C371.198029,1098.290771 381.421478,1095.477295 392.086517,1093.525269 
	C392.796143,1093.927368 393.568359,1094.248901 394.206329,1094.743530 
	C419.285339,1114.185791 446.495972,1129.689209 476.509735,1140.298462 
	C494.616852,1146.698853 513.169983,1151.134277 532.195984,1152.775391 
	C545.294006,1153.904907 558.577209,1153.282471 571.760071,1152.875854 
	C578.932617,1152.654663 586.152527,1151.677246 593.204712,1150.294800 
	C611.313782,1146.744751 627.623535,1138.435425 644.083679,1130.501465 
	C662.949036,1121.407959 682.869446,1119.606445 702.982178,1124.724365 
	C713.145935,1127.310669 722.583191,1132.624023 732.610901,1135.902954 
	C748.047302,1140.950439 763.546570,1145.997559 779.331177,1149.722412 
	C790.255615,1152.300293 801.676636,1153.226929 812.931091,1153.796021 
	C820.575256,1154.182617 828.400452,1153.177979 835.993713,1151.898926 
	C849.308655,1149.656250 862.682556,1147.386108 875.716064,1143.934937 
	C897.594360,1138.142212 917.925659,1128.490112 937.377747,1116.946411 
	C960.177979,1103.415771 980.984253,1087.239868 1000.260193,1069.137329 
	C1020.031677,1050.569580 1037.849365,1030.205933 1054.062012,1008.443481 
	C1069.396484,987.859741 1083.635010,966.524597 1095.480835,943.771301 
	C1106.489258,922.626587 1117.541626,901.376709 1126.512939,879.334045 
	C1136.370239,855.115051 1144.643433,830.168701 1152.157715,805.104736 
	C1158.222778,784.874756 1162.684448,764.108948 1166.824707,743.374634 
	C1170.053711,727.205322 1172.046387,710.759705 1173.940674,694.362061 
	C1175.732544,678.849548 1177.494507,663.256714 1177.821411,647.668823 
	C1178.405151,619.847961 1178.814209,591.973633 1175.012573,564.270813 
	C1173.254517,551.460022 1172.205078,538.520447 1169.789795,525.838196 
	C1165.221436,501.850464 1159.326294,478.173706 1151.003174,455.141327 
	C1141.604126,429.131866 1130.193604,404.080475 1115.192993,380.835663 
	C1101.988892,360.374695 1087.398560,340.931183 1068.583862,325.121826 
	C1060.426270,318.267181 1052.397949,311.179565 1043.707275,305.054199 
	C1024.508667,291.522552 1003.478210,281.448547 980.742371,275.529724 
	C969.097412,272.498230 957.093140,270.198181 945.119019,269.265503 
	C933.615051,268.369446 921.937439,269.588226 910.341309,270.016449 
	C894.546875,270.599701 879.388184,274.624023 864.315125,278.933289 
	C843.046631,285.013672 822.947327,293.936096 803.720093,304.783478 
	C796.510925,308.850708 789.701172,313.625854 782.122375,317.707336 
	C778.818237,316.133484 775.554382,314.467590 772.202393,313.003296 
	C762.824829,308.906830 753.410889,304.893738 744.026978,300.122498 
	C745.327637,297.489807 746.591003,294.837952 747.934937,292.227570 
	C756.676208,275.248413 764.699951,257.843628 774.403503,241.432571 
	C783.346069,226.308456 793.493774,211.787735 804.233276,197.867294 
	C814.077148,185.107758 825.207825,173.307388 836.197510,161.480072 
	C841.330933,155.955292 847.200562,151.011887 853.210449,146.426102 
	C864.629211,137.713135 876.342957,129.382431 888.035828,121.035339 
	C891.462769,118.589027 896.123291,117.361267 898.668091,114.290314 
	C904.723267,106.983093 902.836853,100.944366 894.234619,96.648758 
	C863.767700,81.434669 833.315613,66.190735 802.852722,50.968533 
	C794.706360,46.897816 789.887390,48.032181 785.305359,55.326694 
	C773.512146,74.101273 761.026917,92.498306 750.291870,111.863144 
	C740.970764,128.677536 733.433167,146.505096 725.529114,164.074661 
	C714.431946,188.742096 705.990662,214.390366 698.668579,240.010361 
	C692.693420,230.800354 686.937561,221.327942 680.589539,212.270554 
	C667.998413,194.305435 652.736328,178.673019 635.964172,164.689484 
	C618.341187,149.996506 598.816956,138.047943 577.913635,128.481171 
	C574.090759,126.731567 570.052307,125.452980 566.283142,123.188095 
	C566.573059,122.288742 566.864685,121.389961 567.152466,120.489914 
	C569.668152,112.622833 567.435486,105.306038 561.077515,100.579079 
	C556.091370,96.872025 547.697205,97.351273 541.516479,100.776596 
	C536.479126,103.568237 536.166748,108.752899 533.103882,112.959320 
	C509.592255,106.514099 485.671600,103.607445 460.549561,104.052193 
	C461.063904,110.428741 461.302704,116.186455 462.031830,121.881409 
	C463.899902,136.473053 465.290894,151.173950 468.134308,165.582199 
	C473.501373,192.778793 483.361542,218.388123 497.717957,242.823074 
z"/>
<path fill="#FD0000" opacity="1.000000" stroke="none" 
	d="
M348.865540,288.976746 
	C362.421722,280.891327 377.444519,276.605927 392.598816,273.170715 
	C409.911530,269.246277 427.602966,266.736450 445.387329,268.172729 
	C458.832489,269.258545 472.150085,271.920074 485.526855,273.863983 
	C486.344055,273.982727 487.182129,273.957428 488.483124,274.384399 
	C486.437958,283.888641 483.771545,292.969666 481.434692,302.134766 
	C477.183014,318.809937 473.858948,335.625763 476.935883,352.935089 
	C480.854126,374.977325 499.542511,385.978668 519.989502,377.448120 
	C528.276978,373.990570 535.645203,368.213715 543.192932,363.137238 
	C548.699890,359.433319 553.466736,354.551636 559.162048,351.217438 
	C602.137390,326.058746 648.579834,317.087311 697.766113,323.507599 
	C709.429871,325.030090 720.672363,329.780060 732.062866,333.509216 
	C732.017090,341.265259 732.017090,348.557434 732.017090,356.722687 
	C739.005066,350.820007 745.073242,345.694305 751.520996,340.624756 
	C752.545349,340.843170 753.233887,340.909698 753.828613,341.181366 
	C787.455322,356.541351 819.351013,374.955597 846.397339,400.260529 
	C864.697998,417.382812 881.132812,436.535156 898.010498,455.134918 
	C934.544434,495.396698 948.990112,544.157227 951.814636,597.235901 
	C952.835327,616.415833 948.682312,634.925293 944.479248,653.462219 
	C930.839844,713.616699 916.778076,773.685181 904.062073,834.036072 
	C894.226685,880.715515 878.369507,924.760315 853.105347,965.295959 
	C841.092651,984.570068 828.152466,1003.159485 810.376770,1017.683289 
	C788.488892,1035.566895 763.492432,1047.829224 736.971252,1057.157959 
	C718.363708,1063.703003 699.317139,1069.291138 679.495422,1068.288086 
	C635.394775,1066.056274 595.604980,1051.998901 561.893921,1022.528748 
	C530.070679,994.708801 479.005310,994.618835 447.886047,1023.047058 
	C428.657227,1040.613159 406.576874,1052.512451 382.145905,1060.494141 
	C374.950684,1062.844849 367.392151,1064.083496 359.866028,1065.534058 
	C350.711975,1055.547974 341.306732,1046.185669 332.768494,1036.089966 
	C321.875183,1023.209534 310.974915,1010.230713 301.329071,996.420288 
	C278.565674,963.828430 259.108704,929.306824 243.278320,892.763245 
	C229.798065,861.644775 218.000839,829.942688 209.628311,797.066589 
	C204.689438,777.673279 200.024155,758.179260 196.202896,738.542358 
	C193.332932,723.793884 191.654556,708.782410 190.080765,693.821228 
	C188.342789,677.299133 186.665588,660.720093 186.183975,644.130371 
	C185.688309,627.056274 186.380768,609.927490 187.090057,592.844971 
	C187.649857,579.362488 188.273804,565.804321 190.221176,552.477295 
	C192.787338,534.915466 196.290054,517.462402 200.085892,500.114838 
	C206.125916,472.510834 215.339813,445.897980 227.358337,420.330200 
	C236.967743,399.887604 247.710480,380.012543 262.003204,362.388000 
	C271.260712,350.972443 281.201324,340.110901 291.012390,328.662415 
	C303.081757,326.166565 314.896454,323.119171 326.886230,322.066345 
	C343.758240,320.584778 360.469727,322.468597 376.077240,329.900085 
	C389.799713,336.434052 397.286682,346.048279 397.243225,362.599823 
	C396.869446,504.920685 397.105652,647.243164 397.159790,789.565125 
	C397.159912,789.898438 397.154846,790.231812 397.160553,790.565063 
	C397.656342,819.577759 405.124115,846.412415 422.253540,870.161316 
	C458.035797,919.771118 521.328491,929.189392 568.694336,890.975830 
	C602.194397,863.948730 617.127136,827.296570 617.403320,784.851196 
	C617.851196,716.025452 617.554199,647.194580 617.500732,578.365906 
	C617.488831,563.032166 614.457031,548.310486 607.697937,534.448914 
	C586.637268,491.258026 538.688904,484.185730 507.753143,519.956909 
	C493.152496,536.839661 487.747375,557.064392 487.786835,579.132263 
	C487.905731,645.627625 487.828064,712.123230 487.837646,778.618774 
	C487.837952,780.616089 487.506409,782.764648 488.116791,784.577576 
	C489.203644,787.805603 490.348755,791.274353 492.445221,793.847473 
	C496.710449,799.082581 503.919861,800.477173 510.177368,798.086548 
	C516.955566,795.496948 520.814453,789.684509 520.823669,781.628967 
	C520.862244,747.964600 520.819031,714.300171 520.845825,680.635803 
	C520.874573,644.473206 520.725098,608.308228 521.121887,572.149353 
	C521.263184,559.275024 525.956604,547.663879 535.245056,538.447266 
	C547.741882,526.046997 562.807251,527.354614 573.295593,541.445129 
	C581.953979,553.077087 584.459778,566.485229 584.464844,580.567871 
	C584.489319,649.063293 584.716370,717.559875 584.362976,786.053467 
	C584.211670,815.384888 574.269592,841.154907 552.660034,861.697021 
	C523.057983,889.836792 479.493744,887.368103 453.169495,856.169373 
	C437.085144,837.106628 430.266876,814.687317 430.228516,790.167908 
	C430.043304,671.844604 430.056305,553.520996 430.004303,435.197540 
	C429.992737,408.865967 430.251221,382.530426 429.829559,356.205627 
	C429.722687,349.532623 428.408478,342.542938 426.048737,336.304016 
	C418.444763,316.199738 402.602264,304.246460 383.159027,297.289001 
	C372.146484,293.348328 360.323517,291.672607 348.865540,288.976746 
z"/>
<path fill="#FD0000" opacity="1.000000" stroke="none" 
	d="
M782.709351,318.078247 
	C789.701172,313.625854 796.510925,308.850708 803.720093,304.783478 
	C822.947327,293.936096 843.046631,285.013672 864.315125,278.933289 
	C879.388184,274.624023 894.546875,270.599701 910.341309,270.016449 
	C921.937439,269.588226 933.615051,268.369446 945.119019,269.265503 
	C957.093140,270.198181 969.097412,272.498230 980.742371,275.529724 
	C1003.478210,281.448547 1024.508667,291.522552 1043.707275,305.054199 
	C1052.397949,311.179565 1060.426270,318.267181 1068.583862,325.121826 
	C1087.398560,340.931183 1101.988892,360.374695 1115.192993,380.835663 
	C1130.193604,404.080475 1141.604126,429.131866 1151.003174,455.141327 
	C1159.326294,478.173706 1165.221436,501.850464 1169.789795,525.838196 
	C1172.205078,538.520447 1173.254517,551.460022 1175.012573,564.270813 
	C1178.814209,591.973633 1178.405151,619.847961 1177.821411,647.668823 
	C1177.494507,663.256714 1175.732544,678.849548 1173.940674,694.362061 
	C1172.046387,710.759705 1170.053711,727.205322 1166.824707,743.374634 
	C1162.684448,764.108948 1158.222778,784.874756 1152.157715,805.104736 
	C1144.643433,830.168701 1136.370239,855.115051 1126.512939,879.334045 
	C1117.541626,901.376709 1106.489258,922.626587 1095.480835,943.771301 
	C1083.635010,966.524597 1069.396484,987.859741 1054.062012,1008.443481 
	C1037.849365,1030.205933 1020.031677,1050.569580 1000.260193,1069.137329 
	C980.984253,1087.239868 960.177979,1103.415771 937.377747,1116.946411 
	C917.925659,1128.490112 897.594360,1138.142212 875.716064,1143.934937 
	C862.682556,1147.386108 849.308655,1149.656250 835.993713,1151.898926 
	C828.400452,1153.177979 820.575256,1154.182617 812.931091,1153.796021 
	C801.676636,1153.226929 790.255615,1152.300293 779.331177,1149.722412 
	C763.546570,1145.997559 748.047302,1140.950439 732.610901,1135.902954 
	C722.583191,1132.624023 713.145935,1127.310669 702.982178,1124.724365 
	C682.869446,1119.606445 662.949036,1121.407959 644.083679,1130.501465 
	C627.623535,1138.435425 611.313782,1146.744751 593.204712,1150.294800 
	C586.152527,1151.677246 578.932617,1152.654663 571.760071,1152.875854 
	C558.577209,1153.282471 545.294006,1153.904907 532.195984,1152.775391 
	C513.169983,1151.134277 494.616852,1146.698853 476.509735,1140.298462 
	C446.495972,1129.689209 419.285339,1114.185791 394.206329,1094.743530 
	C393.568359,1094.248901 392.796143,1093.927368 392.088257,1092.898926 
	C421.494965,1082.170288 447.984680,1067.479126 471.450500,1046.579834 
	C487.374115,1032.397827 507.301666,1030.820190 526.755920,1039.391235 
	C535.049377,1043.045166 542.110535,1049.693481 549.389526,1055.416260 
	C572.238770,1073.380737 598.147888,1085.056030 625.859741,1093.037109 
	C650.717712,1100.196045 675.962463,1103.672729 701.822693,1099.937012 
	C725.341736,1096.539307 747.840881,1089.560791 769.525269,1079.991943 
	C798.651917,1067.139038 826.353760,1051.779907 847.680359,1027.577637 
	C887.548889,982.333618 914.591309,929.891724 928.787598,871.523621 
	C945.877258,801.259460 960.795288,730.468750 976.898193,659.961853 
	C982.107483,637.152710 986.032959,614.323730 984.563965,590.781616 
	C981.804932,546.563354 970.059387,505.066040 947.869934,466.602448 
	C937.365662,448.394226 922.483887,433.732513 909.062256,417.857727 
	C883.954590,388.161041 856.089600,361.627991 822.778442,341.260162 
	C809.617554,333.213074 796.077026,325.787109 782.709351,318.078247 
z"/>
<path fill="#FFFDFD" opacity="1.000000" stroke="none" 
	d="
M782.415894,317.892822 
	C796.077026,325.787109 809.617554,333.213074 822.778442,341.260162 
	C856.089600,361.627991 883.954590,388.161041 909.062256,417.857727 
	C922.483887,433.732513 937.365662,448.394226 947.869934,466.602448 
	C970.059387,505.066040 981.804932,546.563354 984.563965,590.781616 
	C986.032959,614.323730 982.107483,637.152710 976.898193,659.961853 
	C960.795288,730.468750 945.877258,801.259460 928.787598,871.523621 
	C914.591309,929.891724 887.548889,982.333618 847.680359,1027.577637 
	C826.353760,1051.779907 798.651917,1067.139038 769.525269,1079.991943 
	C747.840881,1089.560791 725.341736,1096.539307 701.822693,1099.937012 
	C675.962463,1103.672729 650.717712,1100.196045 625.859741,1093.037109 
	C598.147888,1085.056030 572.238770,1073.380737 549.389526,1055.416260 
	C542.110535,1049.693481 535.049377,1043.045166 526.755920,1039.391235 
	C507.301666,1030.820190 487.374115,1032.397827 471.450500,1046.579834 
	C447.984680,1067.479126 421.494965,1082.170288 391.894531,1092.594849 
	C381.421478,1095.477295 371.198029,1098.290771 360.845947,1100.502197 
	C354.660645,1101.823364 348.293610,1102.536499 341.972015,1102.911011 
	C335.167908,1103.314209 328.232635,1103.704224 321.512054,1102.854614 
	C307.873627,1101.130371 294.147430,1099.373901 280.808624,1096.168945 
	C258.069366,1090.705322 236.771103,1081.219971 216.286896,1069.999146 
	C201.947998,1062.144653 188.361237,1053.199341 175.902588,1042.494629 
	C155.738968,1025.169922 140.774567,1003.726746 127.151871,981.306458 
	C119.481316,968.682312 112.508865,955.566956 106.134285,942.236633 
	C93.573265,915.969543 83.758926,888.730591 77.850693,860.074707 
	C73.172867,837.386414 67.291039,814.948730 62.136715,792.355774 
	C55.331383,762.526001 48.701679,732.656128 42.021267,702.797913 
	C37.766949,683.783264 33.204922,664.827515 29.462694,645.711914 
	C27.280035,634.562744 25.448814,623.169006 25.238415,611.852234 
	C24.947485,596.204102 25.299482,580.391235 27.302702,564.898010 
	C29.150822,550.604309 32.816872,536.419434 37.014069,522.590881 
	C41.281170,508.532043 46.452316,494.637573 52.543625,481.270844 
	C59.856117,465.224365 69.231972,450.326233 81.233879,437.114532 
	C94.783516,422.199036 107.504280,406.531494 121.023476,391.587250 
	C139.571930,371.083649 161.611740,354.705414 184.902252,340.085663 
	C214.390213,321.575684 245.563461,306.431702 279.045868,296.570526 
	C293.020264,292.454803 307.262299,289.024323 322.023499,289.003326 
	C330.682373,288.990997 339.341309,289.033783 348.432861,289.014282 
	C360.323517,291.672607 372.146484,293.348328 383.159027,297.289001 
	C402.602264,304.246460 418.444763,316.199738 426.048737,336.304016 
	C428.408478,342.542938 429.722687,349.532623 429.829559,356.205627 
	C430.251221,382.530426 429.992737,408.865967 430.004303,435.197540 
	C430.056305,553.520996 430.043304,671.844604 430.228516,790.167908 
	C430.266876,814.687317 437.085144,837.106628 453.169495,856.169373 
	C479.493744,887.368103 523.057983,889.836792 552.660034,861.697021 
	C574.269592,841.154907 584.211670,815.384888 584.362976,786.053467 
	C584.716370,717.559875 584.489319,649.063293 584.464844,580.567871 
	C584.459778,566.485229 581.953979,553.077087 573.295593,541.445129 
	C562.807251,527.354614 547.741882,526.046997 535.245056,538.447266 
	C525.956604,547.663879 521.263184,559.275024 521.121887,572.149353 
	C520.725098,608.308228 520.874573,644.473206 520.845825,680.635803 
	C520.819031,714.300171 520.862244,747.964600 520.823669,781.628967 
	C520.814453,789.684509 516.955566,795.496948 510.177368,798.086548 
	C503.919861,800.477173 496.710449,799.082581 492.445221,793.847473 
	C490.348755,791.274353 489.203644,787.805603 488.116791,784.577576 
	C487.506409,782.764648 487.837952,780.616089 487.837646,778.618774 
	C487.828064,712.123230 487.905731,645.627625 487.786835,579.132263 
	C487.747375,557.064392 493.152496,536.839661 507.753143,519.956909 
	C538.688904,484.185730 586.637268,491.258026 607.697937,534.448914 
	C614.457031,548.310486 617.488831,563.032166 617.500732,578.365906 
	C617.554199,647.194580 617.851196,716.025452 617.403320,784.851196 
	C617.127136,827.296570 602.194397,863.948730 568.694336,890.975830 
	C521.328491,929.189392 458.035797,919.771118 422.253540,870.161316 
	C405.124115,846.412415 397.656342,819.577759 397.160553,790.565063 
	C397.154846,790.231812 397.159912,789.898438 397.159790,789.565125 
	C397.105652,647.243164 396.869446,504.920685 397.243225,362.599823 
	C397.286682,346.048279 389.799713,336.434052 376.077240,329.900085 
	C360.469727,322.468597 343.758240,320.584778 326.886230,322.066345 
	C314.896454,323.119171 303.081757,326.166565 290.611572,328.662842 
	C289.367645,329.009430 288.650177,328.855530 288.041840,329.047455 
	C256.617737,338.961487 227.191666,353.172760 199.597717,371.068726 
	C188.350204,378.363220 177.393539,386.233521 167.033768,394.730927 
	C158.090652,402.066376 149.770432,410.282959 141.916061,418.794067 
	C131.488632,430.093384 121.989784,442.244690 111.705231,453.682159 
	C101.673897,464.838013 92.973740,476.870148 86.025360,490.126373 
	C75.758026,509.714569 68.236115,530.383362 64.153725,552.094666 
	C61.663334,565.339294 59.984707,578.825745 59.210281,592.276672 
	C58.546581,603.804199 58.243614,615.701843 60.320576,626.967590 
	C65.107689,652.933655 71.406662,678.622192 77.151978,704.410034 
	C82.404747,727.987183 87.704697,751.554016 93.041336,775.112366 
	C98.661552,799.922424 104.507614,824.682373 109.964699,849.528076 
	C115.564934,875.025452 123.666664,899.643372 134.733932,923.285889 
	C145.129135,945.492737 156.942322,966.902710 171.378311,986.752075 
	C182.177017,1001.600159 194.387207,1015.253479 209.545898,1025.802612 
	C230.494308,1040.380981 253.147141,1051.748657 277.413025,1059.724976 
	C291.221863,1064.263916 305.166748,1068.495972 319.860138,1068.954712 
	C327.853851,1069.204346 335.887085,1069.383179 343.854675,1068.862549 
	C349.279327,1068.508179 354.621216,1066.886719 360.000092,1065.831787 
	C367.392151,1064.083496 374.950684,1062.844849 382.145905,1060.494141 
	C406.576874,1052.512451 428.657227,1040.613159 447.886047,1023.047058 
	C479.005310,994.618835 530.070679,994.708801 561.893921,1022.528748 
	C595.604980,1051.998901 635.394775,1066.056274 679.495422,1068.288086 
	C699.317139,1069.291138 718.363708,1063.703003 736.971252,1057.157959 
	C763.492432,1047.829224 788.488892,1035.566895 810.376770,1017.683289 
	C828.152466,1003.159485 841.092651,984.570068 853.105347,965.295959 
	C878.369507,924.760315 894.226685,880.715515 904.062073,834.036072 
	C916.778076,773.685181 930.839844,713.616699 944.479248,653.462219 
	C948.682312,634.925293 952.835327,616.415833 951.814636,597.235901 
	C948.990112,544.157227 934.544434,495.396698 898.010498,455.134918 
	C881.132812,436.535156 864.697998,417.382812 846.397339,400.260529 
	C819.351013,374.955597 787.455322,356.541351 753.828613,341.181366 
	C753.233887,340.909698 752.545349,340.843170 751.259155,340.383545 
	C744.448059,337.739227 738.278381,335.392334 732.108643,333.045410 
	C720.672363,329.780060 709.429871,325.030090 697.766113,323.507599 
	C648.579834,317.087311 602.137390,326.058746 559.162048,351.217438 
	C553.466736,354.551636 548.699890,359.433319 543.192932,363.137238 
	C535.645203,368.213715 528.276978,373.990570 519.989502,377.448120 
	C499.542511,385.978668 480.854126,374.977325 476.935883,352.935089 
	C473.858948,335.625763 477.183014,318.809937 481.434692,302.134766 
	C483.771545,292.969666 486.437958,283.888641 488.893677,274.385071 
	C491.793701,263.608002 494.755829,253.215546 498.042389,242.137451 
	C508.920532,204.068298 519.502197,166.692596 529.996765,129.292450 
	C531.507751,123.907486 532.599487,118.404877 533.885254,112.956726 
	C536.166748,108.752899 536.479126,103.568237 541.516479,100.776596 
	C547.697205,97.351273 556.091370,96.872025 561.077515,100.579079 
	C567.435486,105.306038 569.668152,112.622833 567.152466,120.489914 
	C566.864685,121.389961 566.573059,122.288742 566.012451,123.908607 
	C554.474121,164.550507 543.178711,204.464066 531.957336,244.398422 
	C528.912903,255.233109 526.091797,266.130554 523.089294,277.375092 
	C522.384521,279.824738 521.758728,281.898468 520.964172,284.314148 
	C515.074463,304.670380 507.612976,324.362762 509.118317,347.153809 
	C513.455750,344.155701 517.231750,342.098572 520.346741,339.304596 
	C544.087097,318.011017 572.265503,305.385468 602.685791,297.412933 
	C648.743469,285.342102 694.679993,284.054443 740.190063,300.369904 
	C741.369385,300.792633 742.733398,300.700012 744.011292,300.847717 
	C753.410889,304.893738 762.824829,308.906830 772.202393,313.003296 
	C775.554382,314.467590 778.818237,316.133484 782.415894,317.892822 
z"/>
<path fill="#FD0000" opacity="1.000000" stroke="none" 
	d="
M744.019165,300.485107 
	C742.733398,300.700012 741.369385,300.792633 740.190063,300.369904 
	C694.679993,284.054443 648.743469,285.342102 602.685791,297.412933 
	C572.265503,305.385468 544.087097,318.011017 520.346741,339.304596 
	C517.231750,342.098572 513.455750,344.155701 509.118317,347.153809 
	C507.612976,324.362762 515.074463,304.670380 521.289062,284.465363 
	C525.165039,285.544678 528.547424,286.814667 532.082397,288.377258 
	C533.016113,288.713104 533.797302,288.756439 535.389954,288.844727 
	C533.984741,288.072510 533.337097,287.716583 532.476868,287.105286 
	C529.232300,283.566284 526.200256,280.282745 523.168213,276.999207 
	C526.091797,266.130554 528.912903,255.233109 531.957336,244.398422 
	C543.178711,204.464066 554.474121,164.550507 565.927551,124.293045 
	C570.052307,125.452980 574.090759,126.731567 577.913635,128.481171 
	C598.816956,138.047943 618.341187,149.996506 635.964172,164.689484 
	C652.736328,178.673019 667.998413,194.305435 680.589539,212.270554 
	C686.937561,221.327942 692.693420,230.800354 698.668579,240.010361 
	C705.990662,214.390366 714.431946,188.742096 725.529114,164.074661 
	C733.433167,146.505096 740.970764,128.677536 750.291870,111.863144 
	C761.026917,92.498306 773.512146,74.101273 785.305359,55.326694 
	C789.887390,48.032181 794.706360,46.897816 802.852722,50.968533 
	C833.315613,66.190735 863.767700,81.434669 894.234619,96.648758 
	C902.836853,100.944366 904.723267,106.983093 898.668091,114.290314 
	C896.123291,117.361267 891.462769,118.589027 888.035828,121.035339 
	C876.342957,129.382431 864.629211,137.713135 853.210449,146.426102 
	C847.200562,151.011887 841.330933,155.955292 836.197510,161.480072 
	C825.207825,173.307388 814.077148,185.107758 804.233276,197.867294 
	C793.493774,211.787735 783.346069,226.308456 774.403503,241.432571 
	C764.699951,257.843628 756.676208,275.248413 747.934937,292.227570 
	C746.591003,294.837952 745.327637,297.489807 744.019165,300.485107 
z"/>
<path fill="#FD0101" opacity="1.000000" stroke="none" 
	d="
M533.494568,112.958023 
	C532.599487,118.404877 531.507751,123.907486 529.996765,129.292450 
	C519.502197,166.692596 508.920532,204.068298 498.147614,241.767395 
	C483.361542,218.388123 473.501373,192.778793 468.134308,165.582199 
	C465.290894,151.173950 463.899902,136.473053 462.031830,121.881409 
	C461.302704,116.186455 461.063904,110.428741 460.549561,104.052193 
	C485.671600,103.607445 509.592255,106.514099 533.494568,112.958023 
z"/>
<path fill="#000000" opacity="1.000000" stroke="none" 
	d="
M359.866028,1065.533936 
	C354.621216,1066.886719 349.279327,1068.508179 343.854675,1068.862549 
	C335.887085,1069.383179 327.853851,1069.204346 319.860138,1068.954712 
	C305.166748,1068.495972 291.221863,1064.263916 277.413025,1059.724976 
	C253.147141,1051.748657 230.494308,1040.380981 209.545898,1025.802612 
	C194.387207,1015.253479 182.177017,1001.600159 171.378311,986.752075 
	C156.942322,966.902710 145.129135,945.492737 134.733932,923.285889 
	C123.666664,899.643372 115.564934,875.025452 109.964699,849.528076 
	C104.507614,824.682373 98.661552,799.922424 93.041336,775.112366 
	C87.704697,751.554016 82.404747,727.987183 77.151978,704.410034 
	C71.406662,678.622192 65.107689,652.933655 60.320576,626.967590 
	C58.243614,615.701843 58.546581,603.804199 59.210281,592.276672 
	C59.984707,578.825745 61.663334,565.339294 64.153725,552.094666 
	C68.236115,530.383362 75.758026,509.714569 86.025360,490.126373 
	C92.973740,476.870148 101.673897,464.838013 111.705231,453.682159 
	C121.989784,442.244690 131.488632,430.093384 141.916061,418.794067 
	C149.770432,410.282959 158.090652,402.066376 167.033768,394.730927 
	C177.393539,386.233521 188.350204,378.363220 199.597717,371.068726 
	C227.191666,353.172760 256.617737,338.961487 288.041840,329.047455 
	C288.650177,328.855530 289.367645,329.009430 290.434998,329.001526 
	C281.201324,340.110901 271.260712,350.972443 262.003204,362.388000 
	C247.710480,380.012543 236.967743,399.887604 227.358337,420.330200 
	C215.339813,445.897980 206.125916,472.510834 200.085892,500.114838 
	C196.290054,517.462402 192.787338,534.915466 190.221176,552.477295 
	C188.273804,565.804321 187.649857,579.362488 187.090057,592.844971 
	C186.380768,609.927490 185.688309,627.056274 186.183975,644.130371 
	C186.665588,660.720093 188.342789,677.299133 190.080765,693.821228 
	C191.654556,708.782410 193.332932,723.793884 196.202896,738.542358 
	C200.024155,758.179260 204.689438,777.673279 209.628311,797.066589 
	C218.000839,829.942688 229.798065,861.644775 243.278320,892.763245 
	C259.108704,929.306824 278.565674,963.828430 301.329071,996.420288 
	C310.974915,1010.230713 321.875183,1023.209534 332.768494,1036.089966 
	C341.306732,1046.185669 350.711975,1055.547974 359.866028,1065.533936 
z"/>
<path fill="#000000" opacity="1.000000" stroke="none" 
	d="
M732.062866,333.509216 
	C738.278381,335.392334 744.448059,337.739227 750.879639,340.327362 
	C745.073242,345.694305 739.005066,350.820007 732.017090,356.722687 
	C732.017090,348.557434 732.017090,341.265259 732.062866,333.509216 
z"/>
<path fill="#000000" opacity="1.000000" stroke="none" 
	d="
M531.929810,288.084686 
	C528.547424,286.814667 525.165039,285.544678 521.457764,284.123444 
	C521.758728,281.898468 522.384521,279.824738 523.089294,277.375092 
	C526.200256,280.282745 529.232300,283.566284 532.274658,287.273315 
	C532.166626,287.826050 532.048218,287.955353 531.929810,288.084686 
z"/>
<path fill="#000000" opacity="1.000000" stroke="none" 
	d="
M532.487183,287.528748 
	C533.337097,287.716583 533.984741,288.072510 535.389954,288.844727 
	C533.797302,288.756439 533.016113,288.713104 532.082397,288.377258 
	C532.048218,287.955353 532.166626,287.826050 532.487183,287.528748 
z"/>
</svg>