<svg width="140" height="53" viewBox="0 0 140 53" fill="none" xmlns="http://www.w3.org/2000/svg">
<path fill-rule="evenodd" clip-rule="evenodd" d="M50.1244 25.5364C56.9548 26.9284 63.8318 27.6253 70.7106 27.6253C77.5876 27.6253 84.4663 26.9284 91.2967 25.5364L94.6913 24.8448C96.8578 24.806 98.6061 23.0611 98.6061 20.9387L98.8856 9.71777C98.8856 6.98837 95.873 4.48837 90.4036 2.68173C85.1711 0.952724 78.2259 0 70.8504 0C63.4732 0 56.528 0.952724 51.2953 2.68173C45.8278 4.48837 42.8153 6.98837 42.8153 9.71777V20.921C42.8153 23.0611 44.5654 24.806 46.7299 24.8448L50.1244 25.5364ZM44.2032 13.6693V9.71777C44.2032 5.68279 54.9105 1.3638 70.8504 1.3638C86.7904 1.3638 97.498 5.68279 97.5014 9.70007L97.3491 15.8029L97.0922 15.5392C96.5741 16.0332 95.0927 15.9997 94.4499 15.4774C93.8641 15.0011 93.4492 14.3236 93.0112 13.6038L92.9707 13.5375C92.8506 13.3405 92.73 13.1429 92.6051 12.951C91.7041 11.5625 90.7211 10.7914 89.6011 10.5957C87.7296 10.2675 86.0861 11.6613 85.2883 13.1874C84.8752 13.976 84.6188 14.8123 84.3712 15.6204L84.3597 15.658C84.1664 16.2863 83.9833 16.8808 83.7319 17.4464C83.2672 18.4909 82.2842 19.7171 81.0396 19.7329H81.0129C79.7592 19.7329 78.6303 18.5738 77.6544 16.2872C77.0169 14.7928 75.8308 12.0123 73.3149 11.686C70.9092 11.3737 69.0875 13.5156 68.2578 15.4422C68.0369 15.9573 67.8446 16.4919 67.6594 17.0071C67.1876 18.3214 66.7406 19.5636 65.8484 20.4651C64.7623 21.5607 62.978 21.9841 61.5107 21.4955C60.0416 21.0067 58.8771 19.6024 58.6794 18.0798C58.6153 17.5822 58.6385 17.0653 58.6634 16.5166C58.6865 16.0314 58.7079 15.5286 58.6688 15.0169C58.578 13.8437 58.0134 12.4111 56.7064 11.9118C55.2498 11.356 53.7487 12.2664 52.9064 13.2138C52.5717 13.5896 52.2868 13.9919 52.0107 14.3818C51.6314 14.9199 51.2718 15.4263 50.8213 15.8197C49.9398 16.5872 48.6381 16.8941 47.5021 16.6012C46.4483 16.3295 44.7362 14.7844 44.2032 13.6693ZM44.2032 15.9524C45.1027 16.8858 46.2421 17.6868 47.153 17.9228C48.7431 18.3338 50.4971 17.9192 51.7293 16.843C52.3028 16.342 52.7266 15.7439 53.1361 15.1651L53.1496 15.1462C53.4117 14.7775 53.6591 14.4294 53.9374 14.1154C54.5322 13.4467 55.4635 12.9016 56.2079 13.1857C56.9184 13.4556 57.2353 14.3977 57.2923 15.1211C57.3261 15.5515 57.3065 15.9891 57.2852 16.4549C57.2585 17.0371 57.2317 17.6404 57.3119 18.2562C57.579 20.3098 59.0908 22.1323 61.0709 22.7905C61.63 22.9757 62.2141 23.0656 62.7981 23.0656C64.2886 23.0656 65.7791 22.4834 66.835 21.4178C67.9381 20.3055 68.4564 18.8649 68.9574 17.4726L68.9611 17.4622C69.1481 16.9418 69.3244 16.4513 69.5292 15.975C70.2201 14.3695 71.6001 12.8363 73.1404 13.0374C74.7394 13.2456 75.6566 15.0964 76.3902 16.8166C77.601 19.6553 79.1556 21.095 81.0146 21.095H81.0627C82.9573 21.0703 84.3392 19.4771 84.9981 17.9951C85.2883 17.3441 85.4948 16.6684 85.6943 16.0156L85.7003 15.9958C85.9385 15.2198 86.1638 14.4855 86.5152 13.8137C87.0636 12.7657 88.1873 11.7336 89.3643 11.9382C90.0855 12.0653 90.7657 12.637 91.4477 13.6884C91.5794 13.8914 91.7077 14.1013 91.8341 14.3095C92.3131 15.0964 92.8099 15.9097 93.5792 16.5325C94.4609 17.2483 96.1299 17.4929 97.3198 16.9905L97.2219 20.921C97.2219 22.3324 96.0541 23.481 94.6195 23.481H94.5478L91.017 24.2008C77.5427 26.9478 63.8802 26.9478 50.4078 24.2008L46.8769 23.481H46.8052C45.3706 23.481 44.2032 22.3324 44.2032 20.921V15.9524ZM70.7948 8.08405C67.9508 8.08405 65.27 7.90939 63.249 7.59005C60.647 7.18074 59.5855 6.64616 59.5855 5.74637C59.5855 4.84658 60.647 4.31199 63.249 3.90268C65.27 3.5851 67.9508 3.40867 70.7948 3.40867C73.6389 3.40867 76.3198 3.58334 78.3407 3.90268C80.9427 4.31199 82.0043 4.84658 82.0043 5.74637C82.0043 6.64616 80.9427 7.18074 78.3407 7.59005C76.3198 7.90939 73.6407 8.08405 70.7948 8.08405ZM61.3124 5.74637C62.4277 6.16803 65.6017 6.72026 70.7967 6.72026C75.9898 6.72026 79.1656 6.16979 80.281 5.74637C79.1656 5.3247 75.9916 4.77247 70.7967 4.77247C65.6017 4.77247 62.4277 5.32293 61.3124 5.74637ZM55.2709 8.88509C55.2709 9.70451 54.5957 10.3688 53.7628 10.3688C52.9299 10.3688 52.2547 9.70451 52.2547 8.88509C52.2547 8.06559 52.9299 7.40129 53.7628 7.40129C54.5957 7.40129 55.2709 8.06559 55.2709 8.88509ZM93.7294 12.5302C94.5622 12.5302 95.2374 11.8659 95.2374 11.0464C95.2374 10.2269 94.5622 9.56257 93.7294 9.56257C92.8964 9.56257 92.2212 10.2269 92.2212 11.0464C92.2212 11.8659 92.8964 12.5302 93.7294 12.5302ZM82.18 10.1394C82.18 10.9588 81.5048 11.6231 80.6718 11.6231C79.839 11.6231 79.1638 10.9588 79.1638 10.1394C79.1638 9.31992 79.839 8.65562 80.6718 8.65562C81.5048 8.65562 82.18 9.31992 82.18 10.1394ZM65.0835 18.0188C65.9163 18.0188 66.5915 17.3545 66.5915 16.535C66.5915 15.7155 65.9163 15.0512 65.0835 15.0512C64.2505 15.0512 63.5753 15.7155 63.5753 16.535C63.5753 17.3545 64.2505 18.0188 65.0835 18.0188Z" fill="white"/>
<path d="M3.53818 41.3414C3.53818 42.9683 3.89971 44.4043 4.62277 45.6496C5.36591 46.8949 6.32998 47.869 7.51499 48.572C8.7 49.2749 9.98543 49.6264 11.3713 49.6264C12.3755 49.6264 13.2894 49.4959 14.1129 49.2348C14.9564 48.9737 15.7197 48.6121 16.4026 48.1502C17.0854 47.6681 17.6679 47.1158 18.1499 46.4932V49.8674C17.2662 50.6507 16.3021 51.2332 15.2577 51.6148C14.2133 51.9964 12.9178 52.1872 11.3713 52.1872C9.90509 52.1872 8.52928 51.9261 7.24384 51.4039C5.9785 50.8616 4.86378 50.1085 3.89971 49.1444C2.93563 48.1602 2.18245 47.0053 1.64016 45.6797C1.09787 44.3541 0.826721 42.908 0.826721 41.3414C0.826721 39.7748 1.09787 38.3287 1.64016 37.0031C2.18245 35.6775 2.93563 34.5326 3.89971 33.5685C4.86378 32.5844 5.9785 31.8312 7.24384 31.309C8.52928 30.7667 9.90509 30.4956 11.3713 30.4956C12.9178 30.4956 14.2133 30.6864 15.2577 31.068C16.3021 31.4496 17.2662 32.0321 18.1499 32.8154V36.1896C17.6679 35.567 17.0854 35.0247 16.4026 34.5627C15.7197 34.0807 14.9564 33.7091 14.1129 33.448C13.2894 33.1869 12.3755 33.0564 11.3713 33.0564C9.98543 33.0564 8.7 33.4079 7.51499 34.1108C6.32998 34.8138 5.36591 35.7879 4.62277 37.0332C3.89971 38.2584 3.53818 39.6944 3.53818 41.3414Z" fill="white"/>
<path d="M22.5055 32.3032C22.5055 31.8412 22.6661 31.4496 22.9875 31.1282C23.3289 30.8069 23.7206 30.6462 24.1625 30.6462C24.6244 30.6462 25.0161 30.8069 25.3374 31.1282C25.6588 31.4496 25.8195 31.8412 25.8195 32.3032C25.8195 32.7451 25.6588 33.1367 25.3374 33.4782C25.0161 33.7995 24.6244 33.9602 24.1625 33.9602C23.7206 33.9602 23.3289 33.7995 22.9875 33.4782C22.6661 33.1367 22.5055 32.7451 22.5055 32.3032ZM22.9574 38.0274H25.3676V51.886H22.9574V38.0274Z" fill="white"/>
<path d="M35.6942 52.1872C34.4087 52.1872 33.2639 51.886 32.2597 51.2834C31.2755 50.6608 30.5022 49.8072 29.9398 48.7226C29.3976 47.638 29.1264 46.3827 29.1264 44.9567C29.1264 43.5106 29.4076 42.2452 29.97 41.1606C30.5524 40.076 31.3558 39.2325 32.3802 38.6299C33.4246 38.0274 34.6297 37.7261 35.9954 37.7261C37.3612 37.7261 38.5261 38.0174 39.4902 38.5998C40.4744 39.1622 41.2276 39.9756 41.7498 41.0401C42.272 42.1046 42.5331 43.37 42.5331 44.8362C42.5331 44.9768 42.523 45.1274 42.5029 45.2881C42.5029 45.4287 42.5029 45.5191 42.5029 45.5592H30.6629V43.5106H40.6049L39.6408 44.8964C39.7011 44.796 39.7614 44.6454 39.8216 44.4445C39.8819 44.2236 39.912 44.0428 39.912 43.9022C39.912 43.0787 39.7413 42.3657 39.3998 41.7632C39.0785 41.1606 38.6266 40.6886 38.0441 40.3472C37.4616 40.0058 36.7788 39.835 35.9954 39.835C35.0715 39.835 34.2782 40.0359 33.6154 40.4376C32.9727 40.8192 32.4705 41.3816 32.109 42.1247C31.7676 42.8478 31.5868 43.7415 31.5667 44.806C31.5667 45.8906 31.7374 46.8145 32.0789 47.5778C32.4203 48.341 32.9225 48.9234 33.5853 49.3251C34.2481 49.7268 35.0515 49.9277 35.9954 49.9277C36.9394 49.9277 37.773 49.7268 38.496 49.3251C39.2191 48.9034 39.8317 48.2707 40.3338 47.4271L42.2921 48.6623C41.569 49.8273 40.6551 50.711 39.5505 51.3135C38.4659 51.896 37.1805 52.1872 35.6942 52.1872Z" fill="white"/>
<path d="M45.8365 28.3866H48.2467V51.886H45.8365V28.3866Z" fill="white"/>
<path d="M51.5748 44.9567C51.5748 43.5507 51.8861 42.3055 52.5088 41.2209C53.1515 40.1363 54.0151 39.2827 55.0997 38.6601C56.1843 38.0374 57.3994 37.7261 58.7451 37.7261C60.1109 37.7261 61.326 38.0374 62.3905 38.6601C63.4751 39.2827 64.3287 40.1363 64.9513 41.2209C65.5941 42.3055 65.9154 43.5507 65.9154 44.9567C65.9154 46.3425 65.5941 47.5878 64.9513 48.6925C64.3287 49.7771 63.4751 50.6307 62.3905 51.2533C61.326 51.8759 60.1109 52.1872 58.7451 52.1872C57.3994 52.1872 56.1843 51.8759 55.0997 51.2533C54.0151 50.6307 53.1515 49.7771 52.5088 48.6925C51.8861 47.5878 51.5748 46.3425 51.5748 44.9567ZM54.0151 44.9567C54.0151 45.9208 54.216 46.7744 54.6177 47.5175C55.0395 48.2606 55.6018 48.8531 56.3048 49.295C57.0279 49.7168 57.8413 49.9277 58.7451 49.9277C59.6489 49.9277 60.4523 49.7168 61.1553 49.295C61.8784 48.8531 62.4407 48.2606 62.8424 47.5175C63.2642 46.7744 63.4751 45.9208 63.4751 44.9567C63.4751 43.9926 63.2642 43.139 62.8424 42.3959C62.4407 41.6326 61.8784 41.0401 61.1553 40.6183C60.4523 40.1966 59.6489 39.9857 58.7451 39.9857C57.8413 39.9857 57.0279 40.1966 56.3048 40.6183C55.6018 41.0401 55.0395 41.6326 54.6177 42.3959C54.216 43.139 54.0151 43.9926 54.0151 44.9567Z" fill="white"/>
<path d="M78.4093 30.7968H80.9701V51.886H78.4093V30.7968ZM84.7361 51.886H79.8253V49.3251H84.7361C85.9211 49.3251 87.0057 49.1444 87.9898 48.7829C88.974 48.4012 89.8175 47.869 90.5205 47.1861C91.2235 46.4831 91.7658 45.6396 92.1474 44.6554C92.529 43.6712 92.7198 42.5666 92.7198 41.3414C92.7198 40.1162 92.529 39.0116 92.1474 38.0274C91.7658 37.0432 91.2235 36.2097 90.5205 35.5268C89.8175 34.8239 88.974 34.2916 87.9898 33.9301C87.0057 33.5485 85.9211 33.3577 84.7361 33.3577H79.8253V30.7968H84.7361C86.7847 30.7968 88.6024 31.2387 90.1891 32.1224C91.7758 33.0062 93.0211 34.2414 93.9249 35.8281C94.8287 37.3947 95.2806 39.2325 95.2806 41.3414C95.2806 43.4503 94.8287 45.2981 93.9249 46.8848C93.0211 48.4514 91.7758 49.6766 90.1891 50.5604C88.6024 51.4441 86.7847 51.886 84.7361 51.886Z" fill="white"/>
<path d="M97.5308 44.9567C97.5308 43.5507 97.8421 42.3055 98.4647 41.2209C99.1074 40.1363 99.9711 39.2827 101.056 38.6601C102.14 38.0374 103.355 37.7261 104.701 37.7261C106.067 37.7261 107.282 38.0374 108.346 38.6601C109.431 39.2827 110.285 40.1363 110.907 41.2209C111.55 42.3055 111.871 43.5507 111.871 44.9567C111.871 46.3425 111.55 47.5878 110.907 48.6925C110.285 49.7771 109.431 50.6307 108.346 51.2533C107.282 51.8759 106.067 52.1872 104.701 52.1872C103.355 52.1872 102.14 51.8759 101.056 51.2533C99.9711 50.6307 99.1074 49.7771 98.4647 48.6925C97.8421 47.5878 97.5308 46.3425 97.5308 44.9567ZM99.9711 44.9567C99.9711 45.9208 100.172 46.7744 100.574 47.5175C100.995 48.2606 101.558 48.8531 102.261 49.295C102.984 49.7168 103.797 49.9277 104.701 49.9277C105.605 49.9277 106.408 49.7168 107.111 49.295C107.834 48.8531 108.397 48.2606 108.798 47.5175C109.22 46.7744 109.431 45.9208 109.431 44.9567C109.431 43.9926 109.22 43.139 108.798 42.3959C108.397 41.6326 107.834 41.0401 107.111 40.6183C106.408 40.1966 105.605 39.9857 104.701 39.9857C103.797 39.9857 102.984 40.1966 102.261 40.6183C101.558 41.0401 100.995 41.6326 100.574 42.3959C100.172 43.139 99.9711 43.9926 99.9711 44.9567Z" fill="white"/>
<path d="M115.182 28.3866H117.593V51.886H115.182V28.3866Z" fill="white"/>
<path d="M123.21 44.9567C123.21 45.9208 123.411 46.7744 123.813 47.5175C124.235 48.2606 124.797 48.8531 125.5 49.295C126.223 49.7168 127.036 49.9277 127.94 49.9277C128.683 49.9277 129.376 49.8172 130.019 49.5963C130.682 49.3553 131.254 49.044 131.736 48.6623C132.218 48.2606 132.56 47.8389 132.761 47.397V50.4097C132.279 50.9721 131.586 51.414 130.682 51.7353C129.798 52.0366 128.884 52.1872 127.94 52.1872C126.595 52.1872 125.379 51.8759 124.295 51.2533C123.21 50.6307 122.347 49.7771 121.704 48.6925C121.081 47.5878 120.77 46.3425 120.77 44.9567C120.77 43.5507 121.081 42.3055 121.704 41.2209C122.347 40.1363 123.21 39.2827 124.295 38.6601C125.379 38.0374 126.595 37.7261 127.94 37.7261C128.884 37.7261 129.798 37.8868 130.682 38.2082C131.586 38.5094 132.279 38.9413 132.761 39.5036V42.5164C132.56 42.0544 132.218 41.6326 131.736 41.251C131.254 40.8694 130.682 40.5681 130.019 40.3472C129.376 40.1062 128.683 39.9857 127.94 39.9857C127.036 39.9857 126.223 40.1966 125.5 40.6183C124.797 41.0401 124.235 41.6326 123.813 42.3959C123.411 43.139 123.21 43.9926 123.21 44.9567Z" fill="white"/>
<path d="M136.513 32.3032C136.513 31.8412 136.673 31.4496 136.995 31.1282C137.336 30.8069 137.728 30.6462 138.17 30.6462C138.632 30.6462 139.023 30.8069 139.345 31.1282C139.666 31.4496 139.827 31.8412 139.827 32.3032C139.827 32.7451 139.666 33.1367 139.345 33.4782C139.023 33.7995 138.632 33.9602 138.17 33.9602C137.728 33.9602 137.336 33.7995 136.995 33.4782C136.673 33.1367 136.513 32.7451 136.513 32.3032ZM136.965 38.0274H139.375V51.886H136.965V38.0274Z" fill="white"/>
</svg>
