<svg width="139" height="62" viewBox="0 0 139 62" fill="none" xmlns="http://www.w3.org/2000/svg">
<path fill-rule="evenodd" clip-rule="evenodd" d="M44.7339 31.0144C52.8957 32.705 61.1132 33.5514 69.3329 33.5514C77.5504 33.5514 85.77 32.705 93.9318 31.0144L97.9881 30.1744C100.577 30.1273 102.666 28.0081 102.666 25.4304L103 11.8024C103 8.4875 99.4002 5.4512 92.8647 3.25701C86.6122 1.1571 78.3132 0 69.5 0C60.6847 0 52.3857 1.1571 46.1331 3.25701C39.5998 5.4512 36 8.4875 36 11.8024V16.897V25.4089C36 28.0081 38.0913 30.1273 40.6777 30.1744L44.7339 31.0144ZM37.6585 16.6016V11.8024C37.6585 6.90185 50.453 1.65636 69.5 1.65636C88.5471 1.65636 101.342 6.90185 101.346 11.7809L101.164 19.1929L100.857 18.8726C100.238 19.4726 98.4678 19.4319 97.6997 18.7976C96.9997 18.2191 96.5039 17.3962 95.9805 16.522L95.9321 16.4415C95.7886 16.2023 95.6445 15.9623 95.4953 15.7292C94.4187 14.0428 93.2441 13.1064 91.9057 12.8686C89.6694 12.47 87.7055 14.1628 86.7522 16.0163C86.2586 16.9741 85.9522 17.9898 85.6564 18.9712L85.6426 19.0169L85.6425 19.0169C85.4115 19.78 85.1929 20.502 84.8925 21.1889C84.3372 22.4575 83.1626 23.9467 81.6753 23.966H81.6434C80.1454 23.966 78.7964 22.5582 77.6303 19.7811L77.6301 19.7806C76.8683 17.9656 75.4512 14.5892 72.4449 14.1928C69.5703 13.8135 67.3935 16.4149 66.402 18.7548C66.1381 19.3804 65.9083 20.0297 65.687 20.6554C65.1232 22.2517 64.5891 23.7603 63.523 24.8552C62.2251 26.1859 60.093 26.7001 58.3397 26.1066C56.5843 25.513 55.1927 23.8074 54.9565 21.9582C54.8799 21.3539 54.9076 20.7261 54.9374 20.0597C54.965 19.4704 54.9906 18.8597 54.9438 18.2383C54.8353 16.8134 54.1607 15.0735 52.5989 14.4671C50.8584 13.7921 49.0647 14.8978 48.0582 16.0484C47.6582 16.5048 47.3178 16.9934 46.9879 17.467C46.5347 18.1205 46.1049 18.7355 45.5666 19.2133C44.5133 20.1454 42.9579 20.5182 41.6004 20.1625C40.3412 19.8325 38.2954 17.9559 37.6585 16.6016ZM37.6585 19.3745C38.7333 20.5081 40.0948 21.4809 41.1833 21.7675C43.0834 22.2667 45.1793 21.7632 46.6517 20.4561C47.3369 19.8476 47.8433 19.1212 48.3327 18.4183L48.3488 18.3953C48.662 17.9475 48.9576 17.5247 49.2902 17.1434C50.0009 16.3313 51.1137 15.6692 52.0032 16.0142C52.8522 16.342 53.2309 17.4862 53.299 18.3648C53.3394 18.8876 53.316 19.419 53.2905 19.9847C53.2586 20.6918 53.2266 21.4246 53.3224 22.1725C53.6416 24.6666 55.4481 26.8801 57.8142 27.6794C58.4823 27.9044 59.1802 28.0136 59.8781 28.0136C61.6591 28.0136 63.4401 27.3065 64.7019 26.0123C66.02 24.6614 66.6393 22.9118 67.238 21.2208L67.2424 21.2082C67.4659 20.5761 67.6765 19.9804 67.9212 19.4019C68.7468 17.452 70.3958 15.5899 72.2364 15.8342C74.1471 16.087 75.243 18.3348 76.1196 20.424C77.5665 23.8717 79.4241 25.6202 81.6455 25.6202H81.7029C83.9669 25.5902 85.6181 23.6553 86.4054 21.8553C86.7522 21.0647 86.999 20.244 87.2374 19.4512L87.2446 19.4272L87.2446 19.4271C87.5292 18.4846 87.7984 17.5929 88.2183 16.777C88.8736 15.5042 90.2163 14.2507 91.6227 14.4992C92.4845 14.6535 93.2973 15.3478 94.1123 16.6248C94.2697 16.8713 94.4229 17.1263 94.574 17.3791C95.1464 18.3348 95.74 19.3226 96.6592 20.079C97.7128 20.9483 99.7072 21.2454 101.129 20.6352L101.012 25.4089C101.012 27.1231 99.6166 28.5181 97.9024 28.5181H97.8167L93.5976 29.3923C77.4968 32.7286 61.1711 32.7286 45.0725 29.3923L40.8534 28.5181H40.7677C39.0534 28.5181 37.6585 27.1231 37.6585 25.4089V19.3745ZM69.4336 9.81822C66.0352 9.81822 62.8318 9.60609 60.4169 9.21825C57.3077 8.72113 56.0392 8.07187 56.0392 6.97906C56.0392 5.88625 57.3077 5.23699 60.4169 4.73987C62.8318 4.35417 66.0352 4.13989 69.4336 4.13989C72.832 4.13989 76.0355 4.35203 78.4504 4.73987C81.5595 5.23699 82.8281 5.88625 82.8281 6.97906C82.8281 8.07187 81.5595 8.72113 78.4504 9.21825C76.0355 9.60609 72.8342 9.81822 69.4336 9.81822ZM58.1027 6.97906C59.4355 7.49118 63.2282 8.16187 69.4358 8.16187C75.6412 8.16187 79.4361 7.49332 80.7689 6.97906C79.4361 6.46694 75.6434 5.79625 69.4358 5.79625C63.2282 5.79625 59.4355 6.46479 58.1027 6.97906ZM50.8836 10.7911C50.8836 11.7863 50.0768 12.5931 49.0815 12.5931C48.0863 12.5931 47.2795 11.7863 47.2795 10.7911C47.2795 9.7958 48.0863 8.98899 49.0815 8.98899C50.0768 8.98899 50.8836 9.7958 50.8836 10.7911ZM96.8387 15.2181C97.8339 15.2181 98.6407 14.4113 98.6407 13.416C98.6407 12.4208 97.8339 11.6139 96.8387 11.6139C95.8434 11.6139 95.0366 12.4208 95.0366 13.416C95.0366 14.4113 95.8434 15.2181 96.8387 15.2181ZM83.038 12.3145C83.038 13.3097 82.2312 14.1165 81.2359 14.1165C80.2407 14.1165 79.4339 13.3097 79.4339 12.3145C79.4339 11.3192 80.2407 10.5124 81.2359 10.5124C82.2312 10.5124 83.038 11.3192 83.038 12.3145ZM62.6089 21.8841C63.6041 21.8841 64.4109 21.0773 64.4109 20.0821C64.4109 19.0868 63.6041 18.28 62.6089 18.28C61.6136 18.28 60.8068 19.0868 60.8068 20.0821C60.8068 21.0773 61.6136 21.8841 62.6089 21.8841ZM79.9726 54.0404L81.0304 52.377C81.5697 52.8124 82.109 53.1738 82.6483 53.4613C83.1876 53.7488 83.7352 53.9624 84.2911 54.102C84.8553 54.2417 85.4277 54.3115 86.0085 54.3115C86.8548 54.3115 87.5932 54.1718 88.2237 53.8926C88.8626 53.6133 89.3604 53.2272 89.7172 52.7344C90.0739 52.2333 90.2523 51.6583 90.2523 51.0094C90.2523 50.3029 90.049 49.7197 89.6425 49.2597C89.2442 48.7915 88.7257 48.3931 88.0868 48.0646C87.448 47.736 86.7677 47.4239 86.0458 47.1281C85.4402 46.8735 84.8387 46.6024 84.2413 46.3149C83.6439 46.0274 83.1005 45.6948 82.611 45.3169C82.1298 44.9308 81.744 44.4667 81.4536 43.9246C81.1632 43.3825 81.018 42.7294 81.018 41.9655C81.018 40.988 81.2669 40.1255 81.7647 39.378C82.2625 38.6305 82.9511 38.0473 83.8306 37.6284C84.7184 37.2095 85.7389 37 86.8921 37C87.672 37 88.4561 37.1027 89.2442 37.308C90.0324 37.5052 90.7957 37.7968 91.5342 38.1828L90.6381 39.9571C90.0573 39.6203 89.4475 39.3616 88.8087 39.1809C88.1781 39.0002 87.5559 38.9098 86.9419 38.9098C86.2118 38.9098 85.5688 39.033 85.0129 39.2794C84.4653 39.5177 84.0339 39.8544 83.7186 40.2898C83.4116 40.7169 83.2581 41.218 83.2581 41.793C83.2581 42.4337 83.4448 42.9717 83.8182 43.4071C84.1998 43.8425 84.6893 44.2203 85.2867 44.5407C85.8923 44.8528 86.5312 45.1567 87.2032 45.4524C87.8421 45.7317 88.4726 46.0274 89.0949 46.3396C89.7255 46.6435 90.2938 47.0049 90.7999 47.4239C91.3143 47.8346 91.725 48.3274 92.032 48.9024C92.3389 49.4774 92.4924 50.1715 92.4924 50.9847C92.4924 52.0279 92.2269 52.9438 91.6959 53.7324C91.165 54.5127 90.4182 55.1206 89.4558 55.5559C88.5017 55.9913 87.3816 56.209 86.0956 56.209C84.9673 56.209 83.8928 56.0283 82.8723 55.6668C81.8518 55.3054 80.8852 54.7633 79.9726 54.0404ZM0 55.8393V37.3573H5.37631C7.66622 37.3573 9.63255 37.727 11.2753 38.4662C12.9264 39.2055 14.1916 40.2652 15.0711 41.6451C15.9588 43.0251 16.4027 44.6762 16.4027 46.5983C16.4027 48.5122 15.9588 50.1633 15.0711 51.5515C14.1916 52.9315 12.9264 53.9911 11.2753 54.7304C9.63255 55.4697 7.66622 55.8393 5.37631 55.8393H0ZM2.19035 53.9172H5.47587C7.30946 53.9172 8.8734 53.6297 10.1677 53.0547C11.462 52.4797 12.4493 51.646 13.1296 50.5535C13.8183 49.461 14.1626 48.1426 14.1626 46.5983C14.1626 45.0541 13.8183 43.7357 13.1296 42.6432C12.4493 41.5507 11.462 40.7169 10.1677 40.1419C8.8734 39.5669 7.30946 39.2794 5.47587 39.2794H2.19035V53.9172ZM24.9152 56.0858C23.679 56.0858 22.5672 55.8065 21.5799 55.2479C20.5926 54.6893 19.8127 53.9295 19.2402 52.9685C18.676 51.9992 18.3939 50.9026 18.3939 49.6787C18.3939 48.463 18.676 47.3746 19.2402 46.4135C19.8127 45.4442 20.5926 44.6803 21.5799 44.1217C22.5672 43.555 23.679 43.2716 24.9152 43.2716C26.1514 43.2716 27.2591 43.555 28.2381 44.1217C29.2171 44.6803 29.9887 45.4442 30.5529 46.4135C31.1171 47.3746 31.3991 48.463 31.3991 49.6787C31.3991 50.9026 31.1171 51.9992 30.5529 52.9685C29.9887 53.9295 29.2171 54.6893 28.2381 55.2479C27.2591 55.8065 26.1514 56.0858 24.9152 56.0858ZM24.9028 54.2622C25.7407 54.2622 26.4916 54.061 27.1553 53.6585C27.8191 53.256 28.3418 52.7097 28.7234 52.0197C29.1134 51.3297 29.3084 50.5453 29.3084 49.6663C29.3084 48.8038 29.1134 48.0276 28.7234 47.3376C28.3418 46.6476 27.8191 46.1014 27.1553 45.6989C26.4916 45.2964 25.7407 45.0951 24.9028 45.0951C24.0648 45.0951 23.3098 45.2964 22.6377 45.6989C21.974 46.1014 21.4472 46.6476 21.0572 47.3376C20.6756 48.0276 20.4847 48.8038 20.4847 49.6663C20.4847 50.5453 20.6756 51.3297 21.0572 52.0197C21.4472 52.7097 21.974 53.256 22.6377 53.6585C23.3098 54.061 24.0648 54.2622 24.9028 54.2622ZM43.8816 55.8393H45.9226V48.8038C45.9226 47.0871 45.4414 45.7358 44.479 44.7501C43.5249 43.7644 42.2223 43.2716 40.5712 43.2716C39.559 43.2716 38.6796 43.4646 37.9328 43.8507C37.1861 44.2367 36.5846 44.7912 36.1283 45.514L36.0536 43.518H34.274V55.8393H36.315V49.2104C36.315 47.9865 36.6717 47.0008 37.3853 46.2533C38.1071 45.4976 39.0446 45.1198 40.1979 45.1198C41.3096 45.1198 42.2015 45.4689 42.8736 46.1671C43.5456 46.8653 43.8816 47.7976 43.8816 48.964V55.8393ZM60.8071 55.8393H59.015L58.9403 53.8433C58.484 54.5661 57.8824 55.1206 57.1357 55.5067C56.3973 55.8927 55.522 56.0858 54.5098 56.0858C52.8587 56.0858 51.552 55.5929 50.5896 54.6072C49.6354 53.6133 49.1584 52.2579 49.1584 50.5412V43.518H51.1994V50.3933C51.1994 51.5597 51.5313 52.492 52.195 53.1902C52.867 53.8885 53.7589 54.2376 54.8707 54.2376C56.0323 54.2376 56.9698 53.8597 57.6833 53.104C58.4051 52.3483 58.766 51.3626 58.766 50.1469V43.518H60.8071V55.8393ZM69.4813 56.0858C70.2612 56.0858 71.0619 55.905 71.8832 55.5436L71.5472 53.8063C71.0162 54.1185 70.4852 54.2745 69.9542 54.2745C69.2988 54.2745 68.7678 54.0486 68.3613 53.5968C67.963 53.1451 67.7639 52.5495 67.7639 51.8103V45.3292H71.485V43.518H67.7639V40.4377H65.8225V43.518H63.545V45.3292H65.7229V52.1799C65.7229 52.9602 65.8805 53.6461 66.1958 54.2376C66.5111 54.8208 66.9508 55.2767 67.515 55.6052C68.0792 55.9256 68.7346 56.0858 69.4813 56.0858ZM97.7692 37.3573H95.7282V55.8393H97.7692V49.2721C97.7692 47.9742 98.1094 46.9515 98.7897 46.204C99.47 45.4565 100.403 45.0828 101.59 45.0828C102.768 45.0828 103.685 45.4524 104.34 46.1917C105.004 46.9228 105.336 47.9496 105.336 49.2721V55.8393H107.377V48.8038C107.377 47.0624 106.912 45.7071 105.983 44.7378C105.062 43.7603 103.776 43.2716 102.125 43.2716C100.159 43.2716 98.7067 43.9698 97.7692 45.3662V37.3573ZM116.512 56.0858C115.275 56.0858 114.164 55.8065 113.176 55.2479C112.189 54.6893 111.409 53.9295 110.837 52.9685C110.272 51.9992 109.99 50.9026 109.99 49.6787C109.99 48.463 110.272 47.3746 110.837 46.4135C111.409 45.4442 112.189 44.6803 113.176 44.1217C114.164 43.555 115.275 43.2716 116.512 43.2716C117.748 43.2716 118.855 43.555 119.834 44.1217C120.813 44.6803 121.585 45.4442 122.149 46.4135C122.713 47.3746 122.996 48.463 122.996 49.6787C122.996 50.9026 122.713 51.9992 122.149 52.9685C121.585 53.9295 120.813 54.6893 119.834 55.2479C118.855 55.8065 117.748 56.0858 116.512 56.0858ZM116.499 54.2622C117.337 54.2622 118.088 54.061 118.752 53.6585C119.415 53.256 119.938 52.7097 120.32 52.0197C120.71 51.3297 120.905 50.5453 120.905 49.6663C120.905 48.8038 120.71 48.0276 120.32 47.3376C119.938 46.6476 119.415 46.1014 118.752 45.6989C118.088 45.2964 117.337 45.0951 116.499 45.0951C115.661 45.0951 114.906 45.2964 114.234 45.6989C113.57 46.1014 113.044 46.6476 112.654 47.3376C112.272 48.0276 112.081 48.8038 112.081 49.6663C112.081 50.5453 112.272 51.3297 112.654 52.0197C113.044 52.7097 113.57 53.256 114.234 53.6585C114.906 54.061 115.661 54.2622 116.499 54.2622ZM125.87 62H127.911V54.1759C128.492 54.7756 129.181 55.2438 129.977 55.5806C130.782 55.9174 131.653 56.0858 132.591 56.0858C133.81 56.0858 134.901 55.8065 135.864 55.2479C136.835 54.6893 137.598 53.9254 138.154 52.9561C138.718 51.9869 139 50.8944 139 49.6787C139 48.4547 138.718 47.3622 138.154 46.4012C137.598 45.4319 136.835 44.668 135.864 44.1094C134.901 43.5508 133.81 43.2716 132.591 43.2716C131.612 43.2716 130.712 43.4564 129.89 43.826C129.069 44.1875 128.368 44.6844 127.787 45.3169L127.687 43.518H125.87V62ZM134.744 53.6585C134.072 54.0445 133.3 54.2376 132.429 54.2376C131.599 54.2376 130.853 54.061 130.189 53.7077C129.533 53.3545 129.007 52.8658 128.608 52.2415C128.21 51.6172 127.978 50.9026 127.911 50.0976V49.2597C127.978 48.4547 128.214 47.7401 128.621 47.1158C129.027 46.4833 129.558 45.9864 130.214 45.6249C130.877 45.2635 131.62 45.0828 132.441 45.0828C133.304 45.0828 134.068 45.2799 134.731 45.6742C135.403 46.0685 135.93 46.6106 136.312 47.3006C136.693 47.9824 136.884 48.771 136.884 49.6663C136.884 50.5535 136.693 51.342 136.312 52.032C135.938 52.722 135.416 53.2642 134.744 53.6585Z" fill="white"/>
</svg>
